HIERARCHY
ROOT hip
{
  OFFSET 73.1636 68.5186 17.5853
  CHANNELS 6 Xposition Yposition Zposition Zrotation Xrotation Yrotation
  JOINT abdomen
  {
    OFFSET 0 20.6881 -0.73152
    CHANNELS 3 Zrotation Xrotation Yrotation
    JOINT chest
    {
      OFFSET 0 11.7043 -0.48768
      CHANNELS 3 Zrotation Xrotation Yrotation
      JOINT neck
      {
        OFFSET 0 22.1894 -2.19456
        CHANNELS 3 Zrotation Xrotation Yrotation
        JOINT head
        {
          OFFSET -0.24384 7.07133 1.2192
          CHANNELS 3 Zrotation Xrotation Yrotation
          JOINT leftEye
          {
            OFFSET 4.14528 8.04674 8.04672
            CHANNELS 3 Zrotation Xrotation Yrotation
            End Site
            {
              OFFSET 1 0 0
            }
          }
          JOINT rightEye
          {
            OFFSET -3.6576 8.04674 8.04672
            CHANNELS 3 Zrotation Xrotation Yrotation
            End Site
            {
              OFFSET 1 0 0
            }
          }
        }
      }
      JOINT rCollar
      {
        OFFSET -2.68224 19.2634 -4.8768
        CHANNELS 3 Zrotation Xrotation Yrotation
        JOINT rShldr
        {
          OFFSET -8.77824 -1.95073 1.46304
          CHANNELS 3 Zrotation Xrotation Yrotation
          JOINT rForeArm
          {
            OFFSET -28.1742 -1.7115 0.48768
            CHANNELS 3 Zrotation Xrotation Yrotation
            JOINT rHand
            {
              OFFSET -22.5879 0.773209 7.07136
              CHANNELS 3 Zrotation Xrotation Yrotation
              JOINT rThumb1
              {
                OFFSET -1.2192 -0.487915 3.41376
                CHANNELS 3 Zrotation Xrotation Yrotation
                JOINT rThumb2
                {
                  OFFSET -3.37035 -0.52449 3.41376
                  CHANNELS 3 Zrotation Xrotation Yrotation
                  End Site
                  {
                    OFFSET -1.78271 -1.18214 1.43049
                  }
                }
              }
              JOINT rIndex1
              {
                OFFSET -7.75947 0.938293 5.60832
                CHANNELS 3 Zrotation Xrotation Yrotation
                JOINT rIndex2
                {
                  OFFSET -2.54057 -0.884171 1.56538
                  CHANNELS 3 Zrotation Xrotation Yrotation
                  End Site
                  {
                    OFFSET -1.62519 -0.234802 1.16502
                  }
                }
              }
              JOINT rMid1
              {
                OFFSET -8.24714 1.18213 3.41376
                CHANNELS 3 Zrotation Xrotation Yrotation
                JOINT rMid2
                {
                  OFFSET -3.10165 -0.590103 1.0647
                  CHANNELS 3 Zrotation Xrotation Yrotation
                  End Site
                  {
                    OFFSET -2.48547 -0.328903 0.83742
                  }
                }
              }
              JOINT rRing1
              {
                OFFSET -8.82822 0.546677 1.51678
                CHANNELS 3 Zrotation Xrotation Yrotation
                JOINT rRing2
                {
                  OFFSET -2.60934 -0.819778 -0.0198488
                  CHANNELS 3 Zrotation Xrotation Yrotation
                  End Site
                  {
                    OFFSET -2.33842 -0.294052 0.168128
                  }
                }
              }
              JOINT rPinky1
              {
                OFFSET -8.27202 -0.0477905 -0.4584
                CHANNELS 3 Zrotation Xrotation Yrotation
                JOINT rPinky2
                {
                  OFFSET -1.82734 -0.647385 -0.700984
                  CHANNELS 3 Zrotation Xrotation Yrotation
                  End Site
                  {
                    OFFSET -1.69225 -0.51767 -0.607171
                  }
                }
              }
            }
          }
        }
      }
      JOINT lCollar
      {
        OFFSET 2.68224 19.2634 -4.8768
        CHANNELS 3 Zrotation Xrotation Yrotation
        JOINT lShldr
        {
          OFFSET 8.77824 -1.95073 1.46304
          CHANNELS 3 Zrotation Xrotation Yrotation
          JOINT lForeArm
          {
            OFFSET 28.1742 -1.7115 0.48768
            CHANNELS 3 Zrotation Xrotation Yrotation
            JOINT lHand
            {
              OFFSET 22.5879 0.773209 7.07136
              CHANNELS 3 Zrotation Xrotation Yrotation
              JOINT lThumb1
              {
                OFFSET 1.2192 -0.487915 3.41376
                CHANNELS 3 Zrotation Xrotation Yrotation
                JOINT lThumb2
                {
                  OFFSET 3.37035 -0.52449 3.41376
                  CHANNELS 3 Zrotation Xrotation Yrotation
                  End Site
                  {
                    OFFSET 1.78271 -1.18214 1.43049
                  }
                }
              }
              JOINT lIndex1
              {
                OFFSET 7.75947 0.938293 5.60832
                CHANNELS 3 Zrotation Xrotation Yrotation
                JOINT lIndex2
                {
                  OFFSET 2.54057 -0.884171 1.56538
                  CHANNELS 3 Zrotation Xrotation Yrotation
                  End Site
                  {
                    OFFSET 1.62519 -0.234802 1.16502
                  }
                }
              }
              JOINT lMid1
              {
                OFFSET 8.24714 1.18213 3.41376
                CHANNELS 3 Zrotation Xrotation Yrotation
                JOINT lMid2
                {
                  OFFSET 3.10165 -0.590103 1.0647
                  CHANNELS 3 Zrotation Xrotation Yrotation
                  End Site
                  {
                    OFFSET 2.48547 -0.328903 0.83742
                  }
                }
              }
              JOINT lRing1
              {
                OFFSET 8.82822 0.546677 1.51678
                CHANNELS 3 Zrotation Xrotation Yrotation
                JOINT lRing2
                {
                  OFFSET 2.60934 -0.819778 -0.0198488
                  CHANNELS 3 Zrotation Xrotation Yrotation
                  End Site
                  {
                    OFFSET 2.33842 -0.294052 0.168128
                  }
                }
              }
              JOINT lPinky1
              {
                OFFSET 8.27202 -0.0477905 -0.4584
                CHANNELS 3 Zrotation Xrotation Yrotation
                JOINT lPinky2
                {
                  OFFSET 1.82734 -0.647385 -0.700984
                  CHANNELS 3 Zrotation Xrotation Yrotation
                  End Site
                  {
                    OFFSET 1.69225 -0.51767 -0.607171
                  }
                }
              }
            }
          }
        }
      }
    }
  }
  JOINT rButtock
  {
    OFFSET -8.77824 4.35084 1.2192
    CHANNELS 3 Zrotation Xrotation Yrotation
    JOINT rThigh
    {
      OFFSET 0 -1.70687 -2.19456
      CHANNELS 3 Zrotation Xrotation Yrotation
      JOINT rShin
      {
        OFFSET 0 -36.8199 0.73152
        CHANNELS 3 Zrotation Xrotation Yrotation
        JOINT rFoot
        {
          OFFSET 0.73152 -45.1104 -5.12064
          CHANNELS 3 Zrotation Xrotation Yrotation
          End Site
          {
            OFFSET -1.1221 -3.69964 12.103
          }
        }
      }
    }
  }
  JOINT lButtock
  {
    OFFSET 8.77824 4.35084 1.2192
    CHANNELS 3 Zrotation Xrotation Yrotation
    JOINT lThigh
    {
      OFFSET 0 -1.70687 -2.19456
      CHANNELS 3 Zrotation Xrotation Yrotation
      JOINT lShin
      {
        OFFSET 0 -36.8199 0.73152
        CHANNELS 3 Zrotation Xrotation Yrotation
        JOINT lFoot
        {
          OFFSET -0.73152 -45.1104 -5.12064
          CHANNELS 3 Zrotation Xrotation Yrotation
          End Site
          {
            OFFSET 1.1221 -3.69964 12.103
          }
        }
      }
    }
  }
}
MOTION
Frames:	4
Frame Time:	0.00833333
83.9083 42.5022 11.5974 25.0934 -4.004 74.6028 -7.97534 53.1892 2.60522 3.8916 -3.1293 -1.38057 -10.0647 20.3583 -22.6372 33.3859 -18.9301 -40.6138 -0 0 0 -0 0 0 -1.63758e-013 2.2465e-012 4.66529e-013 28.8359 15.2798 80.0761 -23.0501 -17.4199 46.7319 -0.00700224 -2.36673 -0.332817 -3.78851e-009 1.47373e-009 -2.21905e-009 -6.54263e-009 2.53366e-009 -3.84388e-009 -3.78851e-009 1.47374e-009 -2.21906e-009 7.73091 5.47488 0.417314 -3.7885e-009 1.47373e-009 -2.21904e-009 2.90554 0.965183 0.102902 -3.7885e-009 1.47373e-009 -2.21904e-009 10.2786 0.731801 0.0259123 -3.78851e-009 1.47374e-009 -2.21904e-009 2.22167 -0.733487 -0.20892 -1.6392e-013 2.24649e-012 4.66271e-013 -42.7852 0.886475 -50.9035 28.3882 -34.0599 -73.7976 1.45407 -32.0922 5.05571 7.58761e-010 2.43267e-010 1.45918e-009 1.27023e-009 4.30893e-010 2.53902e-009 7.58757e-010 2.43269e-010 1.45919e-009 -7.73091 5.47488 -0.417314 7.58761e-010 2.43267e-010 1.45918e-009 -2.90554 0.965183 -0.102902 7.58756e-010 2.43267e-010 1.45918e-009 -10.2786 0.731801 -0.0259123 7.58765e-010 2.43269e-010 1.45917e-009 -2.22167 -0.733487 0.20892 -2.03217e-016 0 -3.88251e-019 -27.1302 -67.8139 -25.5495 -2.53938 74.2693 3.809 1.74919 24.7418 -3.28199 2.03217e-016 0 3.88251e-019 42.5323 -65.4315 27.8357 1.3531 66.0383 -2.55806 0.0506452 32.3273 -1.431 
83.7846 42.5055 11.6122 25.1126 -4.01899 74.7027 -8.11369 53.3939 2.76617 4.10885 -3.33085 -1.35036 -10.1047 20.4523 -22.6689 33.1565 -19.0836 -40.6329 -0 0 0 -0 0 0 -1.4621e-013 2.37468e-012 4.74002e-013 28.74 16.1396 80.1054 -23.0345 -17.394 46.6858 -0.00601093 -2.21314 -0.311193 -3.95223e-009 1.75246e-009 -2.10284e-009 -6.82616e-009 3.01594e-009 -3.64293e-009 -3.95223e-009 1.75246e-009 -2.10286e-009 7.73091 5.47488 0.417314 -3.95223e-009 1.75246e-009 -2.10283e-009 2.90554 0.965183 0.102902 -3.95222e-009 1.75246e-009 -2.10284e-009 10.2786 0.731801 0.0259123 -3.95224e-009 1.75247e-009 -2.10283e-009 2.22167 -0.733487 -0.20892 -1.46361e-013 2.37468e-012 4.73754e-013 -40.407 1.03019 -52.076 28.404 -34.3716 -74.3092 1.55303 -33.0083 5.23823 6.70431e-010 1.40482e-010 1.33845e-009 1.12167e-009 2.53198e-010 2.32586e-009 6.70428e-010 1.40484e-010 1.33846e-009 -7.73091 5.47488 -0.417314 6.70432e-010 1.40482e-010 1.33845e-009 -2.90554 0.965183 -0.102902 6.70427e-010 1.40482e-010 1.33845e-009 -10.2786 0.731801 -0.0259123 6.70437e-010 1.40484e-010 1.33844e-009 -2.22167 -0.733487 0.20892 -2.03217e-016 0 -3.88251e-019 -27.0352 -67.8094 -25.4825 -2.5242 74.2739 3.79222 1.75237 24.7166 -3.29664 2.03217e-016 0 3.88251e-019 42.6734 -65.3396 27.9993 1.35424 66.0858 -2.55798 0.0182308 32.2788 -1.36271 
83.649 42.4595 11.6485 25.0362 -4.08913 74.7447 -8.23868 53.4761 2.88096 4.10376 -3.36514 -1.3403 -10.1086 20.4687 -22.7033 33.2014 -19.1424 -40.6778 -0 0 0 -0 0 0 -8.2618e-014 2.13191e-012 3.84226e-013 28.9388 16.866 80.1859 -23.0032 -17.3419 46.5949 -0.00450689 -1.96009 -0.275575 -2.91779e-009 1.5676e-009 -1.2755e-009 -5.03941e-009 2.69783e-009 -2.21265e-009 -2.91779e-009 1.5676e-009 -1.27552e-009 7.73091 5.47488 0.417314 -2.91779e-009 1.56759e-009 -1.2755e-009 2.90554 0.965183 0.102902 -2.91778e-009 1.56759e-009 -1.2755e-009 10.2786 0.731801 0.0259123 -2.91779e-009 1.5676e-009 -1.27549e-009 2.22167 -0.733487 -0.20892 -8.27107e-014 2.13191e-012 3.83998e-013 -37.6209 0.995078 -53.305 28.417 -34.6888 -74.8292 1.65142 -33.8866 5.41638 -1.84529e-010 1.27082e-010 4.89016e-010 -3.28214e-010 2.30535e-010 8.34082e-010 -1.84532e-010 1.27084e-010 4.89024e-010 -7.73091 5.47488 -0.417314 -1.84528e-010 1.27083e-010 4.89018e-010 -2.90554 0.965183 -0.102902 -1.84534e-010 1.27083e-010 4.89017e-010 -10.2786 0.731801 -0.0259123 -1.84523e-010 1.27085e-010 4.89008e-010 -2.22167 -0.733487 0.20892 -2.03217e-016 0 -3.88251e-019 -27.0963 -67.9013 -25.4337 -2.526 74.3097 3.79622 1.72254 24.679 -3.21485 2.03217e-016 0 3.88251e-019 42.6938 -65.357 28.1159 1.35789 66.1315 -2.55999 -0.0117809 32.2319 -1.29862 
83.6087 42.4362 11.6599 24.8973 -4.19467 74.7553 -8.36661 53.4765 2.96035 3.96947 -3.30466 -1.34484 -10.0873 20.4484 -22.7339 33.4059 -19.147 -40.7277 -0 0 0 -0 0 0 1.60174e-014 1.62321e-012 2.2413e-013 29.3362 17.5072 80.2769 -22.9656 -17.2794 46.486 -0.00297753 -1.63291 -0.229544 -1.06955e-009 1.09116e-009 5.76073e-011 -1.8467e-009 1.87666e-009 9.21181e-011 -1.06955e-009 1.09116e-009 5.75823e-011 7.73091 5.47488 0.417314 -1.06955e-009 1.09116e-009 5.76065e-011 2.90554 0.965183 0.102902 -1.06954e-009 1.09116e-009 5.7606e-011 10.2786 0.731801 0.0259123 -1.06956e-009 1.09116e-009 5.76152e-011 2.22167 -0.733487 -0.20892 1.6016e-014 1.62321e-012 2.23931e-013 -34.4895 0.846292 -54.5144 28.4265 -35.0114 -75.3604 1.74954 -34.7338 5.5913 -1.55241e-009 1.56149e-010 -8.66978e-010 -2.6482e-009 2.81613e-010 -1.54631e-009 -1.55241e-009 1.5615e-010 -8.66971e-010 -7.73091 5.47488 -0.417314 -1.55241e-009 1.5615e-010 -8.66971e-010 -2.90554 0.965183 -0.102902 -1.55241e-009 1.56151e-010 -8.66975e-010 -10.2786 0.731801 -0.0259123 -1.5524e-009 1.56152e-010 -8.66983e-010 -2.22167 -0.733487 0.20892 -2.03217e-016 0 -3.88251e-019 -27.242 -68.0562 -25.38 -2.53695 74.3644 3.8117 1.67226 24.6331 -3.07298 2.03217e-016 0 3.88251e-019 42.6445 -65.4436 28.2106 1.36316 66.1795 -2.56329 -0.0396623 32.1789 -1.23856 
